Coordinates
version=1
nRows=13
nColumns=40
inDegrees=yes

Units are S.I. units (second, meters, Newtons, ...)
Angles are in degrees.

endheader
time	pelvis_tilt	pelvis_list	pelvis_rotation	pelvis_tx	pelvis_ty	pelvis_tz	hip_flexion_r	hip_adduction_r	hip_rotation_r	knee_angle_r	knee_angle_r_beta	ankle_angle_r	subtalar_angle_r	mtp_angle_r	hip_flexion_l	hip_adduction_l	hip_rotation_l	knee_angle_l	knee_angle_l_beta	ankle_angle_l	subtalar_angle_l	mtp_angle_l	lumbar_extension	lumbar_bending	lumbar_rotation	arm_flex_r	arm_add_r	arm_rot_r	elbow_flex_r	pro_sup_r	wrist_flex_r	wrist_dev_r	arm_flex_l	arm_add_l	arm_rot_l	elbow_flex_l	pro_sup_l	wrist_flex_l	wrist_dev_l
     14.59750000	     -2.34371193	     -5.32861825	     -1.65734555	      0.78482230	      0.92380086	      0.47797095	     19.33614476	      3.76687785	    -13.18903855	     18.54914347	     18.54914347	      3.72948273	     -2.04645242	     -7.19462294	      5.53033559	    -10.53953670	     -6.36168438	     40.32340638	     40.32340638	     14.98028009	    -16.15852588	     -3.11734828	     -9.14186445	      8.76997113	      0.87553667	     -2.27760545	    -11.97014264	    -10.16782600	     27.72293261	     46.88098543	      0.00000000	      0.00000000	     11.46973273	    -14.51130431	    -10.21105392	     69.35662461	     47.21984065	      0.00000000	      0.00000000
     14.61114286	     -2.25087978	     -5.25789981	     -1.17775787	      0.78488080	      0.92500241	      0.47992153	     18.60530087	      3.56716632	    -14.33663373	     18.41219154	     18.41219154	      4.47039660	     -0.46824601	     -7.11476559	      7.53041332	    -10.90632956	     -5.74975190	     44.14335375	     44.14335375	     14.13082851	    -17.00012175	     -1.04670646	     -9.17358365	      8.87338440	      1.01325414	     -0.75073970	    -12.13673989	    -10.03379691	     28.69045039	     46.82181099	      0.00000000	      0.00000000	     11.07360232	    -14.12410306	     -9.15428796	     66.97804594	     47.11813382	      0.00000000	      0.00000000
     14.62478571	     -2.17557242	     -5.37625729	     -0.72777196	      0.78470581	      0.92610313	      0.48205065	     17.78521994	      3.77188082	    -14.86051012	     17.95444839	     17.95444839	      4.84371077	     -0.02075495	     -7.11438251	      9.54542115	    -11.61906630	     -5.48953597	     47.59073895	     47.59073895	     12.91894578	    -17.66719833	     -0.38053765	     -9.31608069	      9.10753853	      1.35946481	      0.84414138	    -12.39526433	    -10.05276444	     29.42799058	     46.80186933	      0.00000000	      0.00000000	     10.29241230	    -13.43561677	     -8.66574270	     66.18895257	     47.06688301	      0.00000000	      0.00000000
     14.63842857	     -2.17424918	     -5.47619425	     -0.23291766	      0.78438736	      0.92704439	      0.48386690	     17.00628724	      3.91156437	    -15.61871326	     17.41334859	     17.41334859	      5.21410275	      0.79604438	     -7.14234501	     11.67593372	    -12.29983336	     -5.27613520	     50.66632698	     50.66632698	     12.21518261	    -18.06473348	      1.10641884	     -9.27469200	      9.40564114	      1.41698867	      2.53356913	    -12.63854823	    -10.09548098	     30.32991534	     46.77533308	      0.00000000	      0.00000000	      9.37359919	    -12.99866935	     -8.10280197	     64.80243449	     47.00106954	      0.00000000	      0.00000000
     14.65207143	     -2.10234562	     -5.55806976	      0.24085282	      0.78387670	      0.92807200	      0.48559537	     16.18901845	      4.03757312	    -16.37831085	     16.91501436	     16.91501436	      5.50286354	      1.67501409	     -7.13377866	     13.70399877	    -12.96596976	     -5.19837848	     53.23553704	     53.23553704	     11.93398257	    -18.34369726	      3.13455831	     -9.36460392	      9.64247068	      1.52699046	      4.29722503	    -12.95168285	    -10.14495601	     31.27146502	     46.74711644	      0.00000000	      0.00000000	      8.51706053	    -12.53016648	     -7.51417527	     63.22104261	     46.92956665	      0.00000000	      0.00000000
     14.66571429	     -1.98588268	     -5.34471304	      0.65246238	      0.78320104	      0.92930780	      0.48692323	     15.43147212	      3.77309617	    -17.19808027	     16.66047540	     16.66047540	      6.03439687	      2.95809145	     -6.76155138	     15.75123269	    -13.11105256	     -5.02740508	     55.53856260	     55.53856260	     14.22615516	    -18.12146370	     11.57628684	     -9.50997977	      9.58548379	      2.35401610	      5.56033258	    -13.47922613	    -10.30731432	     32.57481920	     46.66758884	      0.00000000	      0.00000000	      8.67426069	    -11.84234317	     -6.19328367	     59.90567105	     46.80185557	      0.00000000	      0.00000000
     14.67935714	     -1.90066482	     -5.36769962	      1.07594455	      0.78253605	      0.93029298	      0.48843433	     14.64048830	      3.91391144	    -17.58441717	     16.17365868	     16.17365868	      6.26868670	      3.28522803	     -6.70862572	     17.49178830	    -13.76241800	     -5.29960035	     56.63878387	     56.63878387	     13.84616395	    -18.37044228	     11.91448664	     -9.63471141	      9.74952342	      2.50239296	      7.40950147	    -13.82663474	    -10.43654747	     33.48159670	     46.64660626	      0.00000000	      0.00000000	      7.53944587	    -11.42748283	     -5.81621695	     58.89214526	     46.75117558	      0.00000000	      0.00000000
     14.69300000	     -1.78279579	     -5.32802492	      1.48954428	      0.78181737	      0.93131892	      0.48977895	     13.83686455	      3.98203150	    -17.95453944	     15.73506993	     15.73506993	      6.52968068	      3.62328935	     -6.67880919	     19.05651480	    -14.30462479	     -5.64021396	     57.03374466	     57.03374466	     13.76478834	    -18.51792443	     12.32234650	     -9.78649140	      9.85654786	      2.62655958	      9.31877810	    -14.20348828	    -10.55640281	     34.37087519	     46.62684642	      0.00000000	      0.00000000	      6.40933241	    -11.02680745	     -5.46983920	     57.62395682	     46.69856041	      0.00000000	      0.00000000
     14.70664286	     -1.65394055	     -5.19078371	      1.89580981	      0.78105679	      0.93239079	      0.49092013	     13.00862947	      3.94944623	    -18.30513979	     15.26639176	     15.26639176	      6.80902528	      4.02213037	     -6.62411199	     20.44366874	    -14.64133158	     -5.98745251	     56.71105157	     56.71105157	     13.90133697	    -18.56793009	     12.90659418	     -9.94982045	      9.86988114	      2.61320896	     11.32031162	    -14.47240129	    -10.67238344	     35.30278299	     46.60183422	      0.00000000	      0.00000000	      5.36802451	    -10.71788878	     -5.15270893	     55.84703452	     46.64284923	      0.00000000	      0.00000000
     14.72028571	     -1.54787382	     -5.00713118	      2.25527127	      0.78019947	      0.93333792	      0.49192409	     12.29136081	      3.85804324	    -18.55019561	     14.95048441	     14.95048441	      7.10832662	      4.25161381	     -6.58173250	     21.66858985	    -14.83206396	     -6.35363837	     55.70062300	     55.70062300	     14.10896808	    -18.57450844	     13.31587943	    -10.07762872	      9.82906507	      2.76207272	     13.24361742	    -14.84140563	    -10.78969601	     36.17618179	     46.57743026	      0.00000000	      0.00000000	      4.37193770	    -10.31351425	     -4.89935721	     54.08691989	     46.59224427	      0.00000000	      0.00000000
     14.73392857	     -1.55801474	     -4.83380911	      2.56484229	      0.77923072	      0.93396270	      0.49280842	     11.82318775	      3.75950628	    -18.65331335	     14.84864416	     14.84864416	      7.43024869	      4.17597883	     -6.63707210	     22.84482323	    -14.95134469	     -6.73028417	     54.08829857	     54.08829857	     14.31857830	    -18.42099842	     13.42534222	    -10.10203770	      9.79257949	      3.37213537	     14.90154325	    -15.51843142	    -10.90061377	     36.86862253	     46.56698658	      0.00000000	      0.00000000	      3.27536938	     -9.78023458	     -4.69670492	     53.36840926	     46.55505315	      0.00000000	      0.00000000
     14.74757143	     -1.40652159	     -4.55365645	      2.92126124	      0.77830027	      0.93489736	      0.49346045	     11.01824712	      3.58537787	    -18.82603801	     14.45348087	     14.45348087	      7.75698788	      4.34713561	     -6.58063484	     23.59318157	    -14.76112722	     -6.96739096	     51.79752541	     51.79752541	     14.40343467	    -18.35616908	     13.43786548	    -10.26888948	      9.68592827	      2.86060392	     17.14270341	    -15.44229716	    -10.96535367	     38.20722608	     46.52192475	      0.00000000	      0.00000000	      2.11149398	     -9.70906429	     -4.49331412	     50.94215145	     46.49889849	      0.00000000	      0.00000000
     14.76121429	     -1.37688824	     -4.28154621	      3.19251822	      0.77725891	      0.93547475	      0.49404841	     10.46322045	      3.39019176	    -18.90993730	     14.27401285	     14.27401285	      8.11451488	      4.34552307	     -6.59971436	     24.27524736	    -14.48265666	     -7.19172994	     49.04774184	     49.04774184	     14.46137804	    -18.14850844	     13.30335695	    -10.30128581	      9.55264824	      2.94429988	     19.02724495	    -15.69989131	    -11.00414334	     39.34372696	     46.48194973	      0.00000000	      0.00000000	      1.10861815	     -9.40595393	     -4.37472323	     49.08299565	     46.45755447	      0.00000000	      0.00000000
